<svg width="23" height="22" viewBox="0 0 23 22" fill="none" xmlns="http://www.w3.org/2000/svg">
<path fill-rule="evenodd" clip-rule="evenodd" d="M11.7164 7.52436e-08H13.7836C15.1553 -4.57392e-06 16.2307 -8.21054e-06 17.0951 0.0706119C17.9752 0.142522 18.7023 0.291379 19.3604 0.626713C20.4424 1.17798 21.322 2.05762 21.8733 3.13956C22.2086 3.79769 22.3575 4.52479 22.4294 5.40494C22.5 6.26928 22.5 7.34471 22.5 8.71642V12.9783C22.5 15.4756 20.4756 17.5 17.9783 17.5H17.3766C17.1281 17.5 16.9582 17.751 17.0505 17.9817C17.7371 19.6984 15.7601 21.2503 14.2556 20.1757L12.399 18.8495C11.9833 18.9972 11.5407 19.0868 11.081 19.1088C10.9708 19.1141 10.8331 19.1141 10.616 19.1141H10.5892L10.5318 19.1142C9.89366 19.1183 9.2711 19.3202 8.74767 19.694L8.71034 19.721L6.67977 21.1912C5.34144 22.1602 3.67216 20.7416 4.24917 19.2794C4.26593 19.237 4.26021 19.1967 4.23713 19.1621C4.21435 19.128 4.18527 19.1141 4.15154 19.1141H3.68351C1.63962 19.1141 2.31518e-07 17.4374 2.31518e-07 15.3906L1.12309e-07 12.0245C-5.49053e-06 10.9482 -9.90182e-06 10.0953 0.0554078 9.40776C0.112065 8.70485 0.230278 8.10954 0.503761 7.56548C0.947119 6.68347 1.65555 5.96449 2.52921 5.51327C2.70691 5.42149 2.89008 5.34686 3.08083 5.28596C3.15645 4.45722 3.3076 3.76585 3.62671 3.13955C4.17798 2.05762 5.05762 1.17798 6.13955 0.626713C6.79769 0.291379 7.52479 0.142522 8.40494 0.070612C9.26929 -8.21054e-06 10.3447 -4.57392e-06 11.7164 7.52436e-08ZM4.61815 5.03791C5.24847 4.99993 5.99344 4.99996 6.88855 5L8.56111 5C9.62186 4.99999 10.4644 4.99999 11.1439 5.05626C11.8396 5.11388 12.4306 5.23428 12.9708 5.51327C13.8445 5.96449 14.5529 6.68347 14.9962 7.56548C15.2697 8.10954 15.3879 8.70485 15.4446 9.40776C15.5 10.0953 15.5 10.9483 15.5 12.0245V14.2074C15.5 14.4062 15.5 14.5327 15.4948 14.6436C15.4314 16.0026 14.7987 17.211 13.8294 18.0279L15.1274 18.9551C15.4129 19.159 15.788 18.8645 15.6577 18.5388C15.1713 17.3228 16.0669 16 17.3766 16H17.9783C19.6472 16 21 14.6472 21 12.9783V8.75C21 7.33749 20.9994 6.32322 20.9344 5.52708C20.87 4.7397 20.7464 4.23197 20.5368 3.82054C20.1293 3.02085 19.4791 2.37068 18.6795 1.96322C18.268 1.75359 17.7603 1.62996 16.9729 1.56563C16.1768 1.50058 15.1625 1.5 13.75 1.5H11.75C10.3375 1.5 9.32322 1.50058 8.52708 1.56563C7.7397 1.62996 7.23197 1.75359 6.82054 1.96322C6.02085 2.37068 5.37068 3.02085 4.96322 3.82054C4.79989 4.1411 4.68949 4.51818 4.61815 5.03791ZM6.97222 6.5C5.46785 6.5 4.57539 6.50298 3.92398 6.62088C3.62884 6.6743 3.40679 6.74827 3.21753 6.84601C2.62771 7.15064 2.14629 7.63773 1.84397 8.23916C1.69359 8.53832 1.59987 8.91654 1.55056 9.52827C1.50057 10.1485 1.5 10.941 1.5 12.0571V15.3906C1.5 16.6282 2.48713 17.6141 3.68351 17.6141H4.15154C5.30185 17.6141 6.0581 18.7818 5.64446 19.8301C5.62698 19.8743 5.63158 19.8981 5.63545 19.911C5.64107 19.9298 5.65527 19.9534 5.68018 19.9732C5.70512 19.9931 5.72819 19.9992 5.7412 19.9999C5.74759 20.0003 5.76547 20.0013 5.80009 19.9762L7.83066 18.506L7.87582 18.4734C8.64973 17.9207 9.57312 17.6204 10.522 17.6142L10.5892 17.6141C10.8417 17.6141 10.9399 17.6139 11.0091 17.6106C11.4263 17.5905 11.8209 17.4885 12.1786 17.32C13.209 16.835 13.9393 15.7974 13.9965 14.5736C13.9998 14.5024 14 14.4137 14 14.1848V12.0571C14 10.941 13.9994 10.1485 13.9494 9.52827C13.9001 8.91654 13.8064 8.53832 13.656 8.23916C13.3537 7.63773 12.8723 7.15064 12.2825 6.84601C11.9908 6.69536 11.6214 6.60094 11.0201 6.55115C10.4097 6.5006 9.62931 6.5 8.52778 6.5H6.97222Z" fill="#333333"/>
<path d="M5.75 12.75C5.75 13.3023 5.30229 13.75 4.75 13.75C4.19772 13.75 3.75 13.3023 3.75 12.75C3.75 12.1977 4.19772 11.75 4.75 11.75C5.30229 11.75 5.75 12.1977 5.75 12.75Z" fill="#333333"/>
<path d="M8.75 12.75C8.75 13.3023 8.30229 13.75 7.75 13.75C7.19772 13.75 6.75 13.3023 6.75 12.75C6.75 12.1977 7.19772 11.75 7.75 11.75C8.30229 11.75 8.75 12.1977 8.75 12.75Z" fill="#333333"/>
<path d="M11.75 12.75C11.75 13.3023 11.3023 13.75 10.75 13.75C10.1977 13.75 9.75 13.3023 9.75 12.75C9.75 12.1977 10.1977 11.75 10.75 11.75C11.3023 11.75 11.75 12.1977 11.75 12.75Z" fill="#333333"/>
</svg>
