<svg width="20" height="20" viewBox="0 0 20 20" fill="none" xmlns="http://www.w3.org/2000/svg">
<path d="M5.25 7C5.25 4.37665 7.37665 2.25 10 2.25C12.6234 2.25 14.75 4.37665 14.75 7C14.75 9.62335 12.6234 11.75 10 11.75C7.37665 11.75 5.25 9.62335 5.25 7Z" fill="#2D264B"/>
<path fill-rule="evenodd" clip-rule="evenodd" d="M9.95475 0.25H10.0452C11.8818 0.249992 13.3214 0.249985 14.4635 0.373728C15.6291 0.500006 16.5734 0.762324 17.3798 1.34815C17.8679 1.70281 18.2972 2.13209 18.6518 2.62024C19.2377 3.42656 19.5 4.37094 19.6263 5.53648C19.75 6.67859 19.75 8.11816 19.75 9.95465V10.0453C19.75 11.8818 19.75 13.3214 19.6263 14.4635C19.5 15.6291 19.2377 16.5734 18.6518 17.3798C18.3143 17.8444 17.9092 18.2556 17.45 18.6C17.4267 18.6175 17.4033 18.6347 17.3798 18.6518C16.5734 19.2377 15.6291 19.5 14.4635 19.6263C13.3214 19.75 11.8818 19.75 10.0453 19.75H9.95473C8.11824 19.75 6.67859 19.75 5.53648 19.6263C4.37094 19.5 3.42656 19.2377 2.62024 18.6518C2.59801 18.6357 2.57592 18.6194 2.55396 18.603C2.09317 18.258 1.68667 17.8457 1.34815 17.3798C0.762324 16.5734 0.500006 15.6291 0.373728 14.4635C0.249985 13.3214 0.249992 11.8818 0.25 10.0452V9.95475C0.249992 8.11821 0.249985 6.67861 0.373728 5.53648C0.500006 4.37094 0.762324 3.42656 1.34815 2.62024C1.70281 2.13209 2.13209 1.70281 2.62024 1.34815C3.42656 0.762324 4.37094 0.500006 5.53648 0.373728C6.67861 0.249985 8.11821 0.249992 9.95475 0.25ZM5.69804 1.865C4.66013 1.97745 4.00992 2.19259 3.50191 2.56168C3.14111 2.82382 2.82382 3.14111 2.56168 3.50191C2.19259 4.00992 1.97745 4.66013 1.865 5.69804C1.75103 6.74999 1.75 8.10843 1.75 10C1.75 11.8916 1.75103 13.25 1.865 14.302C1.97263 15.2953 2.17432 15.9336 2.51502 16.4319C3.16282 14.5789 4.92609 13.25 7 13.25H13C15.074 13.25 16.8371 14.5789 17.485 16.4319C17.8257 15.9336 18.0274 15.2954 18.135 14.302C18.249 13.25 18.25 11.8916 18.25 10C18.25 8.10843 18.249 6.74999 18.135 5.69804C18.0225 4.66013 17.8074 4.00992 17.4383 3.50191C17.1762 3.14111 16.8589 2.82382 16.4981 2.56168C15.9901 2.19259 15.3399 1.97745 14.302 1.865C13.25 1.75103 11.8916 1.75 10 1.75C8.10843 1.75 6.74999 1.75103 5.69804 1.865Z" fill="#2D264B"/>
</svg>
